# Blender v2.92.0 OBJ File: 'Teste.blend1'
# www.blender.org
mtllib Teste.mtl
o ReferenceArrows_Cube.007
v 10.001993 0.143599 -0.140340
v 10.001993 -0.143599 -0.140340
v 10.001993 0.143599 0.140340
v 10.001993 -0.143599 0.140340
v 10.536119 -0.000000 0.000000
v -0.140340 10.060199 0.143599
v -0.140340 10.060199 -0.143599
v 0.140340 10.060199 0.143599
v 0.140340 10.060199 -0.143599
v 0.000000 10.594324 0.000000
v -0.140340 0.143599 -10.000425
v -0.140340 -0.143598 -10.000425
v 0.140340 0.143599 -10.000425
v 0.140340 -0.143598 -10.000425
v 0.000000 0.000000 -10.534551
v 0.000000 0.100001 0.100000
v 10.000000 0.099999 0.100000
v 0.000000 0.100001 -0.100000
v 10.000000 0.099999 -0.100000
v 0.000000 -0.099999 0.100000
v 10.000000 -0.100000 0.100000
v 0.000000 -0.099999 -0.100000
v 10.000000 -0.100000 -0.100000
v -0.099999 0.058774 0.100000
v -0.099999 10.058772 0.100000
v -0.099999 0.058774 -0.100000
v -0.100000 10.058772 -0.099999
v 0.100000 0.058774 0.100000
v 0.100000 10.058772 0.100000
v 0.100000 0.058774 -0.100000
v 0.100000 10.058772 -0.099999
v -0.099999 -0.100000 -9.999999
v -0.099999 -0.100000 0.000000
v -0.100000 0.100001 -9.999999
v -0.099999 0.100000 0.000000
v 0.100000 -0.100000 -9.999999
v 0.100000 -0.100000 0.000000
v 0.100000 0.100001 -9.999999
v 0.100000 0.100000 0.000000
vt 0.940195 0.200567
vt 0.933127 0.200554
vt 0.933127 0.193323
vt 0.940195 0.193336
vt 0.813701 0.340946
vt 0.806696 0.328669
vt 0.813701 0.326887
vt 0.813515 0.608026
vt 0.806696 0.595747
vt 0.813515 0.593904
vt 0.310268 0.802142
vt 0.313755 0.815742
vt 0.306524 0.815742
vt 0.936376 0.727485
vt 0.940042 0.741091
vt 0.932975 0.741091
vt 0.933123 0.059730
vt 0.940189 0.059743
vt 0.940189 0.066974
vt 0.933123 0.066961
vt 0.813668 0.207428
vt 0.806696 0.195241
vt 0.813668 0.193323
vt 0.810100 0.861065
vt 0.813763 0.874671
vt 0.806696 0.874671
vt 0.813664 0.059730
vt 0.813664 0.073864
vt 0.806696 0.071941
vt 0.813516 0.741606
vt 0.806696 0.729327
vt 0.813516 0.727485
vt 0.933160 0.326901
vt 0.940227 0.326887
vt 0.940227 0.334118
vt 0.933160 0.334131
vt 0.813700 0.474445
vt 0.806696 0.462202
vt 0.813700 0.460405
vt 0.564567 0.816162
vt 0.557711 0.803817
vt 0.564567 0.802117
vt 0.063490 0.802141
vt 0.066958 0.815766
vt 0.059730 0.815766
vt 0.936640 0.593904
vt 0.940041 0.607511
vt 0.932974 0.607511
vt 0.687237 0.430989
vt 0.687237 0.682658
vt 0.682203 0.682645
vt 0.682203 0.430975
vt 0.308721 0.682683
vt 0.308721 0.430998
vt 0.313755 0.430985
vt 0.313755 0.682669
vt 0.557709 0.311516
vt 0.557709 0.059739
vt 0.562744 0.059730
vt 0.562744 0.311506
vt 0.313755 0.059739
vt 0.313755 0.311525
vt 0.308719 0.311516
vt 0.308719 0.059730
vt 0.933160 0.460414
vt 0.938195 0.460405
vt 0.938195 0.465441
vt 0.933160 0.465450
vt 0.938256 0.866112
vt 0.933222 0.866099
vt 0.933222 0.861065
vt 0.938256 0.861079
vt 0.189260 0.059739
vt 0.189260 0.311525
vt 0.184224 0.311516
vt 0.184224 0.059730
vt 0.687237 0.059743
vt 0.687237 0.311413
vt 0.682203 0.311399
vt 0.682203 0.059730
vt 0.184224 0.682682
vt 0.184224 0.430998
vt 0.189258 0.430984
vt 0.189258 0.682669
vt 0.438250 0.059730
vt 0.438250 0.311506
vt 0.433214 0.311516
vt 0.433214 0.059739
vt 0.306523 0.935201
vt 0.311559 0.935210
vt 0.311559 0.940246
vt 0.306523 0.940236
vt 0.438248 0.931759
vt 0.433214 0.931773
vt 0.433214 0.926740
vt 0.438248 0.926726
vt 0.064765 0.059730
vt 0.064765 0.311517
vt 0.059730 0.311525
vt 0.059730 0.059739
vt 0.557711 0.682658
vt 0.557711 0.430989
vt 0.562744 0.430975
vt 0.562744 0.682644
vt 0.059730 0.682669
vt 0.059730 0.430985
vt 0.064763 0.430998
vt 0.064763 0.682682
vt 0.438250 0.430984
vt 0.438250 0.682761
vt 0.433214 0.682752
vt 0.433214 0.430975
vt 0.433214 0.802220
vt 0.438248 0.802233
vt 0.438248 0.807267
vt 0.433214 0.807253
vt 0.064765 0.940261
vt 0.059730 0.940270
vt 0.059730 0.935235
vt 0.064765 0.935225
vn -1.0000 0.0000 0.0000
vn 0.2541 0.0000 -0.9672
vn 0.2596 0.9657 0.0000
vn 0.2541 0.0000 0.9672
vn 0.2596 -0.9657 0.0000
vn 0.0000 -1.0000 0.0000
vn -0.9672 0.2541 0.0000
vn -0.0000 0.2596 0.9657
vn 0.9672 0.2541 0.0000
vn 0.0000 0.2596 -0.9657
vn -0.0000 0.0000 1.0000
vn -0.9672 0.0000 -0.2541
vn -0.0000 0.9657 -0.2596
vn 0.9672 0.0000 -0.2541
vn -0.0000 -0.9657 -0.2596
vn 0.0000 1.0000 0.0000
vn -0.0000 0.0000 -1.0000
vn 1.0000 0.0000 0.0000
usemtl Material
s off
f 2/1/1 4/2/1 3/3/1 1/4/1
f 5/5/2 2/6/2 1/7/2
f 5/8/3 1/9/3 3/10/3
f 5/11/4 3/12/4 4/13/4
f 5/14/5 4/15/5 2/16/5
f 7/17/6 9/18/6 8/19/6 6/20/6
f 10/21/7 7/22/7 6/23/7
f 10/24/8 6/25/8 8/26/8
f 10/27/9 8/28/9 9/29/9
f 10/30/10 9/31/10 7/32/10
f 12/33/11 14/34/11 13/35/11 11/36/11
f 15/37/12 12/38/12 11/39/12
f 15/40/13 11/41/13 13/42/13
f 15/43/14 13/44/14 14/45/14
f 15/46/15 14/47/15 12/48/15
f 16/49/16 17/50/16 19/51/16 18/52/16
f 18/53/17 19/54/17 23/55/17 22/56/17
f 22/57/6 23/58/6 21/59/6 20/60/6
f 20/61/11 21/62/11 17/63/11 16/64/11
f 18/65/1 22/66/1 20/67/1 16/68/1
f 23/69/18 19/70/18 17/71/18 21/72/18
f 24/73/1 25/74/1 27/75/1 26/76/1
f 26/77/17 27/78/17 31/79/17 30/80/17
f 30/81/18 31/82/18 29/83/18 28/84/18
f 28/85/11 29/86/11 25/87/11 24/88/11
f 26/89/6 30/90/6 28/91/6 24/92/6
f 31/93/16 27/94/16 25/95/16 29/96/16
f 32/97/1 33/98/1 35/99/1 34/100/1
f 34/101/16 35/102/16 39/103/16 38/104/16
f 38/105/18 39/106/18 37/107/18 36/108/18
f 36/109/6 37/110/6 33/111/6 32/112/6
f 34/113/17 38/114/17 36/115/17 32/116/17
f 39/117/11 35/118/11 33/119/11 37/120/11
